<svg version="1.2" xmlns="http://www.w3.org/2000/svg" viewBox="0 0 976 273" width="976" height="273"><defs><linearGradient id="P" gradientUnits="userSpaceOnUse"/><linearGradient id="g1" x2="1" href="#P" gradientTransform="matrix(.993,0,0,.828,750.583,263.135)"><stop stop-color="#fefefe"/><stop offset="1" stop-color="#fefefe"/></linearGradient></defs><style>.a{fill:#fefefe}.b{fill:url(#g1)}</style><path class="a" d="m592.6 272.9v-89h91.9v15.2h-71.2v19.9h58.2v15.1h-58.2v22.1h71.2v16.7z"/><path class="a" d="m0.8 272.9v-89h92v15.2h-71.3v19.9h58.3v15.1h-58.3v22.1h71.3v16.7z"/><path class="a" d="m111.7 272.9v-89h14.1l62.7 52.5q3.1 2.6 5.6 4.9 2.4 2.3 4.5 4.8-0.6-7.5-0.7-10.6-0.2-3.1-0.2-4.8v-46.8h18.6v89h-14.1l-65.4-54.9q-2.3-2.2-4.1-3.8-1.7-1.7-3.3-3.5 0.5 4.1 0.7 7.8 0.2 3.7 0.2 6.4v48z"/><path class="a" d="m241 272.9v-89h20.7v72.3h66.7v16.7z"/><path fill-rule="evenodd" class="a" d="m341.9 272.9h20.6l10.4-19.4h56.4l10.7 19.4h23.2l-51-89h-20zm39.9-35.5l19.7-36.2 19.2 36.2z"/><path class="a" d="m551.5 199.9h-55.8v56.3h55.8v-19.2h20.7v14.9q0 12.2-4.6 16.6-4.6 4.4-17.4 4.4h-53.2q-12.9 0-17.5-4.4-4.5-4.4-4.5-16.6v-46.9q0-12.1 4.5-16.6 4.6-4.5 17.5-4.5h53.2q12.8 0 17.4 4.5 4.6 4.5 4.6 16.6v11.5h-20.7z"/><path fill-rule="evenodd" class="a" d="m866.8 272.6h60.3c10.1-0.7 20.3-1.5 29.1-6.9 17-10.4 22.3-33.7 17-52-6-20.4-25.5-27.7-45.1-28.5h-61.3zm13.4-9.1v-70.1h47.9c11.1 0.8 22.1 4.9 28 14.8 4.9 8 5.7 19.2 4.2 28.2-3.4 20.2-20.1 26-38.4 26.8-10.2 0.4-20.5 0.2-30.7 0.3-3.7 0-7.3 0-11 0z"/><path class="b" d="m750.2 263.5q-0.1-0.1-0.2-0.2 0-16.4 0-32.8 0 0.2 0.1 0.3c7.7 14.1 18 28.1 25.7 42.1 16.2 0.2 32.5 0.4 48.6-0.3 4.9-0.2 12.6-0.3 15.4-5.1 1.9-3.3 1.9-7.5 2.4-11.3q0-15.3 0-30.5-24.8 0-49.7 0 0 3.7 0 7.4 18.4 0 36.7 0 0 15.2 0 30.4-39.5 0-79 0zm-0.1-32.7q-0.1-0.1-0.1-0.3 0-7 0-14.1 0 0-0.1 0c-4.3-2.9-9.1-5.8-13.5-8.7 0.1 13.6-0.2 27.3 0.1 41 0.1 5.6-0.6 18 4.8 21.3 2.6 1.7 7.5 2.5 10.6 2.6 6.5 0.4 13.6 0.3 20.1 0.3 1.3 0 2.6 0 3.8 0-7.7-14-18-28-25.7-42.1zm-0.2-14.4q0.1 0 0.1 0 0-6.9 0-13.8 0.2 0 0.4-0.1c22.8-5.6 42.8-11.9 65.6-17.5-18.3 0-36.4-0.3-54.7 0.2-5.5 0.1-16.7-0.3-20.9 3.5-4.7 4.2-4 13.3-4 19 4.4 2.9 9.2 5.8 13.5 8.7zm0.5-13.9q-0.2 0.1-0.4 0.1 0-4.6 0-9.1 39.6 0 79.2 0 0 5.4 0 10.8 6.5 0 13 0c0-4.6-0.2-12.4-3.9-15.7-4.2-3.6-13.6-3.6-18.9-3.6-1 0-2.4 0-3.4 0-22.8 5.6-42.8 11.9-65.6 17.5z"/><path class="a" d="m511.3 38.3c-9.1 0-17 1.4-24.1 4.3-6.7 2.7-12.9 6.7-19.4 12.6-9.3 8.4-17.3 14-25 17.7-8.3 3.9-16.8 5.7-26.6 5.7h-49.5q-0.6 0.9-1.2 1.7-6.5 9.7-13 19.3h69.7c12 0 22.1-2 31.6-6.3 8.5-3.8 16.7-9.6 26.7-18.6 12.1-10.9 23.6-15.4 39.7-15.4h66.5q6.4-9.6 12.9-19.1 0.6-1 1.2-1.9z"/><path class="a" d="m575.2 76c-9.1 0-23.6 0-28.2 0-14.1 0-27.1 0-28.2 0h-0.5c-4.1 0-11.7 0-20.8 3.6-8.1 3.1-15.3 8.4-21.4 15.6l-3.7 4.4h86.9q7.9-11.8 15.9-23.6z"/><path class="a" d="m496.4 0.6c-14.3 0-27.3 4.9-37.5 14.2-20.4 18.4-31.7 26.2-48.6 26.2h-21.1q-7 10.4-14.1 20.9h38.1c10.7 0 20-2 29.1-6.3 8.2-3.9 16.6-9.8 26.3-18.6 11.8-10.6 23.1-15.4 36.7-15.4h104q7.1-10.5 14.2-21z"/></svg>