<svg version="1.2" xmlns="http://www.w3.org/2000/svg" viewBox="0 0 774 317" width="774" height="317"><style>.a{fill:#eaeaeb}</style><path class="a" d="m189 316.3q-3 0-6 0 44.7-45.7 91.1-91.2 5.3-5.2 10.6-10.3 11.1 0 22.2 0 16.2 23.9 32.4 47.8l223.3-0.7q24.1-23.5 48.2-47.1 27 0 53.9 0-2.4 2.4-4.8 4.9l-96.7 96.6z"/><path class="a" d="m773.5 113.9q-41 41.4-82 82.8-156.1 0-312.2 0 39.5-41.4 79-82.8z"/><path class="a" d="m576.4 0.3q3 0 6 0-44.7 45.8-91.1 91.3-5.3 5.1-10.6 10.3-11.1 0-22.2 0-16.2-23.9-32.4-47.8l-223.3 0.6q-24.1 23.6-48.2 47.2-27 0-53.9 0 2.4-2.5 4.8-4.9l96.7-96.7z"/><path class="a" d="m374.7 124.6q-38.7 39.1-77.5 78.2c-98.8 0.5-198.3-1-296.7 0.8l79-79z"/></svg>